<svg width="149" height="30" viewBox="0 0 149 30" fill="none" xmlns="http://www.w3.org/2000/svg">
<path fill-rule="evenodd" clip-rule="evenodd" d="M20.7378 25.5641C20.1192 25.9006 19.4772 26.1787 18.8201 26.3985C23.6387 29.6342 27.7162 30.9095 29.3127 29.313C30.9092 27.7165 29.6338 23.6389 26.398 18.82C26.1136 19.6708 25.7315 20.496 25.2516 21.2782C26.7673 23.8498 27.3049 25.8302 26.5095 26.6256C25.7102 27.4249 23.714 26.878 21.1237 25.3449C20.9962 25.4205 20.8675 25.4936 20.7378 25.5641ZM3.60112 11.1793C3.86112 10.4018 4.20276 9.64569 4.62605 8.92423C3.00592 6.24069 2.41163 4.16538 3.23061 3.34638C4.04569 2.53129 6.10513 3.11606 8.77007 4.71876C8.91663 4.62981 9.06468 4.54428 9.21411 4.46217C9.24919 4.4429 9.28435 4.42381 9.31958 4.40491C9.92056 4.08241 10.5432 3.8147 11.1801 3.6018C6.36109 0.36564 2.28316 -0.909952 0.68661 0.686617C-0.909837 2.28308 0.365469 6.36063 3.60112 11.1793ZM11.179 26.3993C10.4014 26.1392 9.64519 25.7975 8.92366 25.3741C6.24055 26.9939 4.16559 27.588 3.34669 26.7691C2.53168 25.954 3.11628 23.8948 4.71868 21.2302C4.25269 20.4623 3.88049 19.6535 3.60206 18.8202C0.366278 23.639 -0.909104 27.7167 0.687371 29.3132C2.28371 30.9095 6.36077 29.6345 11.179 26.3993ZM26.3983 11.1804C26.1325 10.3852 25.7814 9.6123 25.3448 8.87599C26.878 6.28552 27.425 4.28928 26.6256 3.4899C25.8302 2.69449 23.8498 3.23216 21.2781 4.74799C20.496 4.26816 19.6709 3.88606 18.8203 3.60169C23.6392 0.36571 27.717 -0.90978 29.3135 0.686749C30.91 2.28332 29.6344 6.3613 26.3983 11.1804ZM10.061 19.9392C7.33353 17.2117 7.33352 12.7895 10.061 10.0619C12.7886 7.33435 17.2107 7.33435 19.9383 10.0619C22.6658 12.7895 22.6658 17.2117 19.9383 19.9392C17.2107 22.6668 12.7886 22.6668 10.061 19.9392ZM8.29041 21.7099C4.585 18.0044 4.585 11.9967 8.29041 8.29125C11.9958 4.5858 18.0035 4.5858 21.7089 8.29125C25.4143 11.9967 25.4143 18.0044 21.7089 21.7099C18.0035 25.4153 11.9958 25.4153 8.29041 21.7099ZM44.4799 22.1743H49.0784V24H42V23.3057L47.0079 7.82572H42.9149V6H49.4396V6.82286L44.4799 22.1743ZM56.7029 7.82572V13.74H60.194V15.54H56.7029V22.1743H60.3625V24H54.6564V6H60.3625V7.82572H56.7029ZM68.3982 14.28L71.5522 24H73.6227L70.7336 15.2314H71.817C72.748 15.2314 73.2134 14.7257 73.2134 13.7143V7.59429C73.2134 7.04571 73.1091 6.66 72.9004 6.43714C72.6115 6.14571 72.0578 6 71.2392 6H65.7738V24H67.8203V7.82572H71.1669V13.4314H68.3982V14.28ZM86.2353 22.4057C86.2353 23.0229 86.1069 23.4429 85.8501 23.6657C85.6093 23.8886 85.2 24 84.6222 24H80.2644C79.2853 24 78.7957 23.4686 78.7957 22.4057V7.72286C78.7957 6.57429 79.3495 6 80.457 6H84.5741C85.6816 6 86.2353 6.54857 86.2353 7.64571V22.4057ZM84.1888 7.82572H80.8422V22.1743H84.1888V7.82572ZM98.4157 23.4343C98.6243 23.1771 98.7287 22.8343 98.7287 22.4057V17.6486C98.7287 17.3229 98.6564 16.9971 98.512 16.6714C98.4478 16.5686 98.3755 16.4571 98.2953 16.3371C98.2471 16.2514 98.191 16.1743 98.1268 16.1057L93.8171 11.2714V7.82572H96.7303V11.4H98.7287V7.62C98.7287 6.54 98.1589 6 97.0192 6H93.5523C93.0065 6 92.5651 6.14571 92.2281 6.43714C91.9231 6.71143 91.7706 7.04571 91.7706 7.44V11.1686C91.7706 11.7343 91.9071 12.18 92.1799 12.5057L96.7544 17.6743V22.1743H93.8171V17.5971H91.7706V22.4314C91.7706 23.4771 92.3404 24 93.48 24H97.0915C97.7014 24 98.1428 23.8114 98.4157 23.4343ZM111.715 15.18C111.715 16.3286 111.145 16.9029 110.005 16.9029H106.322V24H104.275V6H110.005C110.663 6 111.121 6.16286 111.378 6.48857C111.602 6.78 111.715 7.26 111.715 7.92857V15.18ZM109.668 7.82572H106.322V15H109.668V7.82572ZM122.667 20.0914L123.366 24H125.508L121.825 6H120.284L116.528 24H118.478L119.273 20.0914H122.667ZM119.658 18.2143L120.982 11.5029L122.234 18.2143H119.658ZM137.759 22.0457C137.759 22.8 137.614 23.3143 137.325 23.5886C137.036 23.8629 136.515 24 135.76 24H132.39C131.555 24 130.993 23.8714 130.704 23.6143C130.447 23.3743 130.319 22.8857 130.319 22.1486V8.00571C130.319 7.21714 130.447 6.68571 130.704 6.41143C130.977 6.13714 131.507 6 132.293 6H135.64C136.362 6 136.868 6.12857 137.157 6.38571C137.43 6.64286 137.566 7.11429 137.566 7.8V11.4H135.544V7.82572H132.366V22.1743H135.712V17.4429H137.759V22.0457ZM145.34 13.74V7.82572H149V6H143.294V24H149V22.1743H145.34V15.54H148.831V13.74H145.34Z" fill="white"/>
</svg>
