<svg width="16" height="16" viewBox="0 0 16 16" fill="none" xmlns="http://www.w3.org/2000/svg">
<path d="M0.5 7.16667H7.16667V0.5H0.5V7.16667ZM2.16667 2.16667H5.5V5.5H2.16667V2.16667Z" fill="#AFB2D3"/>
<path d="M0.5 15.4999H7.16667V8.83325H0.5V15.4999ZM2.16667 10.4999H5.5V13.8333H2.16667V10.4999Z" fill="#AFB2D3"/>
<path d="M8.83337 0.5V7.16667H15.5V0.5H8.83337ZM13.8334 5.5H10.5V2.16667H13.8334V5.5Z" fill="#AFB2D3"/>
<path d="M15.5 13.8333H13.8334V15.4999H15.5V13.8333Z" fill="#AFB2D3"/>
<path d="M10.5 8.83325H8.83337V10.4999H10.5V8.83325Z" fill="#AFB2D3"/>
<path d="M12.1667 10.5H10.5V12.1667H12.1667V10.5Z" fill="#AFB2D3"/>
<path d="M10.5 12.1667H8.83337V13.8334H10.5V12.1667Z" fill="#AFB2D3"/>
<path d="M12.1667 13.8333H10.5V15.4999H12.1667V13.8333Z" fill="#AFB2D3"/>
<path d="M13.8333 12.1667H12.1666V13.8334H13.8333V12.1667Z" fill="#AFB2D3"/>
<path d="M13.8333 8.83325H12.1666V10.4999H13.8333V8.83325Z" fill="#AFB2D3"/>
<path d="M15.5 10.5H13.8334V12.1667H15.5V10.5Z" fill="#AFB2D3"/>
</svg>
